<?xml version="1.0" encoding="UTF-8"?>
<svg id="_레이어_1" data-name="레이어_1" xmlns="http://www.w3.org/2000/svg" version="1.1" viewBox="0 0 122 50">
  <!-- Generator: Adobe Illustrator 30.2.1, SVG Export Plug-In . SVG Version: 2.1.1 Build 1)  -->
  <defs>
    <style>
      .st0 {
        fill: #231815;
      }
    </style>
  </defs>
  <path class="st0" d="M38.47,49.99l17.55-22.21v22.21h-17.55ZM12.07.37c1.98,0,3.79.49,5.45,1.45,1.66.97,2.97,2.28,3.94,3.94s1.45,3.48,1.45,5.45-.49,3.77-1.45,5.39c-.99,1.68-2.3,3-3.94,3.97-1.68.99-3.5,1.48-5.45,1.48s-3.79-.49-5.45-1.48c-1.64-.97-2.95-2.29-3.94-3.97-.97-1.66-1.45-3.45-1.45-5.39s.49-3.76,1.45-5.42c.99-1.68,2.3-3,3.94-3.97,1.62-.97,3.44-1.45,5.45-1.45M32.77,49.99H0l17.17-21.55c.12-.15.24-.28.33-.4.1-.12.23-.28.4-.49.12-.15.24-.28.34-.41.11-.12.22-.27.34-.44.06-.11.19-.28.4-.52.2-.24.35-.43.46-.58.25-.32.4-.5.44-.54,2.04-2.5,3.6-4.55,4.7-6.15.97-1.41,1.63-2.71,1.99-3.91.36-1.2.54-2.55.54-4.06,0-2.14-.46-4.11-1.39-5.89-.95-1.77-2.42-3.39-4.41-4.88C23.36.06,25.82,0,28.7,0,32.48,0,35.37.14,37.37.41c2.1.29,3.89.78,5.36,1.45,3.99,1.66,7.2,4.33,9.61,8,.94,1.41,1.74,3.04,2.39,4.88.63,1.91.99,3.62,1.07,5.14.02.06.03.16.03.28s.01.27.03.44c.02.19.03.44.03.76v.44l-23.13,28.2h0Z"/>
  <path class="st0" d="M62.77,49.99L89.8.37h32.14l-26.85,49.62h-32.33ZM61.88,42.72V.31l.06.06h23.22l-23.28,42.35Z"/>
</svg>